<?xml version="1.0" encoding="utf-8"?>
<svg version="1.1" xmlns="http://www.w3.org/2000/svg" xmlns:xlink="http://www.w3.org/1999/xlink" x="0px" y="0px" viewBox="0 0 850 204" style="enable-background:new 0 0 850 204;" xml:space="preserve">
<style type="text/css">
	.blue1{fill:#0071BA;}
	.blue2{fill:#5476BA;}
	.white{fill:#FFFFFF;}
</style>
<g id="ingram-micro">
	<g id="micro">
		<path id="M_1_" class="blue1" d="M833,194.2h-15.2v-4.6l10.4-2.8l-10.4-2.7v-4.6H833v2.9h-12l12,3v3l-12,3h12V194.2z"/>
		<path id="I" class="blue1" d="M833,176.5h-15.2v-3.1H833V176.5z"/>
		<path id="C" class="blue1" d="M827.4,160.8l0.9-3c1.7,0.5,2.9,1.2,3.7,2.3s1.2,2.4,1.2,4c0,2-0.7,3.7-2.1,5c-1.4,1.3-3.3,2-5.7,2 c-2.5,0-4.5-0.7-5.9-2s-2.1-3-2.1-5.2c0-1.9,0.6-3.4,1.7-4.5c0.7-0.7,1.6-1.2,2.8-1.6l0.7,3c-0.8,0.2-1.4,0.6-1.9,1.1 c-0.5,0.6-0.7,1.3-0.7,2.1c0,1.1,0.4,2,1.2,2.7s2.1,1.1,3.9,1.1c1.9,0,3.3-0.3,4.1-1s1.2-1.6,1.2-2.7c0-0.8-0.3-1.5-0.8-2.1 S828.5,161.1,827.4,160.8z"/>
		<path id="R_2_" class="blue1" d="M833,155.2h-15.2v-6.5c0-1.6,0.1-2.8,0.4-3.5c0.3-0.7,0.8-1.3,1.5-1.8c0.7-0.4,1.5-0.7,2.4-0.7 c1.1,0,2.1,0.3,2.8,1s1.2,1.7,1.4,3c0.4-0.7,0.8-1.2,1.3-1.6c0.5-0.4,1.3-1,2.5-1.7l3-1.9v3.7l-3.3,2.2c-1.2,0.8-1.9,1.3-2.2,1.6 s-0.5,0.6-0.6,0.9c-0.1,0.3-0.2,0.8-0.2,1.5v0.6h6.4v3.2H833z M824.2,152.1v-2.3c0-1.5-0.1-2.4-0.2-2.8c-0.1-0.4-0.3-0.7-0.6-0.9 s-0.7-0.3-1.1-0.3c-0.5,0-0.9,0.1-1.2,0.4c-0.3,0.3-0.5,0.7-0.6,1.2c0,0.2-0.1,1-0.1,2.2v2.4h3.8V152.1z"/>
		<path id="O" class="blue1" d="M825.4,140.5c-1.5,0-2.9-0.2-3.9-0.7c-0.8-0.3-1.5-0.8-2.1-1.4c-0.6-0.6-1.1-1.3-1.4-2 c-0.4-0.9-0.6-2-0.6-3.3c0-2.2,0.7-4,2.1-5.4c1.4-1.3,3.3-2,5.8-2s4.4,0.7,5.8,2c1.4,1.3,2.1,3.1,2.1,5.4s-0.7,4.1-2.1,5.4 C829.8,139.8,827.9,140.5,825.4,140.5z M825.3,137.3c1.7,0,3-0.4,3.9-1.2s1.3-1.8,1.3-3s-0.4-2.2-1.3-3c-0.9-0.8-2.2-1.2-4-1.2 c-1.7,0-3,0.4-3.9,1.1c-0.9,0.8-1.3,1.8-1.3,3s0.4,2.3,1.3,3.1C822.3,136.9,823.6,137.3,825.3,137.3z"/>
	</g>
	<g id="ingram">
		<rect id="I_1_" x="404.8" y="125.7" class="blue1" width="25.7" height="67.3"/>
		<path id="N" class="blue1" d="M515.8,183.6c-5.3-6.1-9-14.7-8.6-24.1c0-6.1,2.4-15.5,9.4-23.3V126h-22.4v47.7L480.3,126h-37.1v67.3 H464v-48.6l14.3,48.2h16.3h20.8h1.6h12.6C524.4,192.2,516.2,184.4,515.8,183.6"/>
		<path id="RAM" class="blue1" d="M663.5,162.4l7.8-20.8l7.8,20.8H663.5z M598.2,155.9v-15.5c0,0,16.7-3.3,16.7,7.8 C614.9,159.2,598.2,155.9,598.2,155.9z M761,125.7l-8.6,37.1l-9.4-37.1h-39.1v42l-15.9-42h-34.7L637,169.8 c-2.4-5.3-11.8-8.6-11.8-8.6c14.7-4.5,17.5-14.7,14.3-24.5c-3.7-11.8-30.2-10.6-30.2-10.6H568l4.1,11.4c0,0-15.9-3.7-25.7,2.4 c-9.8,6.1-13.5,15.1-10.2,24.9c3.3,10.6,12.2,11.8,14.3,11.8c2.4,0,9.8-3.3,9.8-3.3l-5.3-16.7l22-5.3l8.6,29 c0,0-2.9,6.9-25.3,12.7h38v-24.5h6.5c7.8,0,8.6,6.9,8.6,6.9v18h40.4l5.3-14.3h21.6l5.3,15.1h40.8v-51l14.7,51h20.4l15.5-52.2v52.2 h22.4v-68.5L761,125.7z"/>
	</g>
	<g id="R">
		<path id="ring" class="blue1" d="M849.1,112.4c-0.7-1.1-1.5-1.9-2.6-2.5c-1.1-0.6-2.2-0.9-3.4-0.9c-1.2,0-2.3,0.3-3.2,0.9 c-1.1,0.5-2,1.4-2.6,2.5c-0.6,1.1-0.9,2.3-0.9,3.5c0,1.2,0.3,2.3,0.9,3.4c0.6,1,1.4,1.9,2.5,2.5c1.1,0.6,2.2,0.9,3.4,0.9 s2.3-0.3,3.4-0.9c1-0.6,1.9-1.4,2.5-2.5c0.6-1.1,0.9-2.2,0.9-3.4C850,114.7,849.8,113.5,849.1,112.4z M847.8,118.7 c-0.4,0.9-1.1,1.6-2,2.1c-0.9,0.5-1.8,0.7-2.8,0.7s-2-0.2-2.8-0.7s-1.5-1.2-2-2.1c-0.5-0.9-0.7-1.8-0.7-2.8s0.3-1.9,0.8-2.8 c0.5-0.8,1.2-1.5,2.1-2c0.8-0.5,1.8-0.7,2.7-0.7c1,0,1.9,0.2,2.5,0.7c0.9,0.4,1.6,1.1,2.1,2c0.5,0.9,0.8,1.8,0.8,2.8 S848.3,117.8,847.8,118.7z"/>
		<path id="R_1_" class="blue1" d="M845.4,118.2c-0.3-0.5-0.4-0.8-0.5-0.9c-0.2-0.3-0.4-0.5-0.5-0.6c-0.1-0.1-0.3-0.2-0.5-0.3 c0.7-0.1,1.2-0.3,1.5-0.7c0.3-0.4,0.5-0.9,0.5-1.4c0-0.3-0.1-0.7-0.3-1s-0.4-0.5-0.7-0.7c-0.2-0.2-0.6-0.3-1.1-0.3 c-0.1,0-0.9,0-2.3,0H840v7.3v0.1h1.5v-3h0.4c0.4,0,0.8,0.1,1,0.3s0.6,0.7,1,1.5l0.6,1.2h1.8L845.4,118.2z M842.1,115.4h-0.6v-1.9 h0.6c0.9,0,1.4,0.1,1.6,0.1s0.4,0.1,0.5,0.3c0.1,0.1,0.2,0.3,0.2,0.5c0,0.2-0.1,0.5-0.2,0.6c-0.1,0.1-0.3,0.2-0.5,0.3 C843.5,115.4,843,115.4,842.1,115.4z"/>
	</g>
</g>
<g id="live-vault">
	<path id="wave" class="blue2" d="M221.4,14.4c23.3,41.6-54.3,83.3-55.7,84C81.3,138.8,53,124.8,53,124.8c48.8-9,98.4-35.5,106.6-40.6 c60.9-38.3,46.3-65.4,44.8-67.3C203,15,195.8,0,152,11.1c-34.7,8.9-74.6,31-75.6,31.5c2.5-1.4,31.3-23.4,61.8-33.5 C202.1-12,218.6,9.5,221.4,14.4z"/>
	<polygon id="square" class="blue2" points="62,111.8 35.1,111.8 35.1,84.9 62,84.9"/>
	<g id="live">
		<polygon id="L" class="white" points="0,118.3 11.8,118.3 11.8,182.4 35.5,182.4 35.5,192.2 0,192.2"/>
		<polygon id="i" class="white" points="54.3,139.6 54.3,192.2 42.8,192.2 42.8,139.6"/>
		<path id="v" class="white" d="M77.5,192.2l-17.5-51l11.4-2.4c3.7,12.2,7.3,24.5,11,38.8l0,0c3.7-14.7,7.8-26.9,11.8-38.8l9.8,2l-18.8,51.4 L77.5,192.2L77.5,192.2z"/>
		<path id="e" class="white" d="M120,159.6c0-6.9,2.9-13.5,9.4-13.5c5.7,0,7.8,5.3,7.3,13.5H120L120,159.6z M147.7,166.9c0.8-15.5-4.9-29-18-29 c-12.2,0-21.6,10.2-21.6,26.5c0,17.5,9.8,28.6,22.4,28.6c4.9,0,11-1.6,16.7-5.7L144,180c-2.9,2.4-7.3,4.1-11.4,4.1 c-6.9,0-12.7-7.3-12.7-17.1h27.8L147.7,166.9L147.7,166.9z"/>
	</g>
	<g id="vault">
		<path id="v_1_" class="white" d="M173.4,192.2l-22-72.6l12.7-2c5.3,18.8,10.6,37.5,15.9,58.8l0,0c5.3-21.2,11-40,16.7-58.8l10.2,2l-23.7,72.6 L173.4,192.2L173.4,192.2z"/>
		<path id="a" class="white" d="M232.2,161.6c0.8,15.5-4.9,22.4-9.4,22.4c-2.9,0-5.3-3.3-5.3-7.8c0-6.1,2.9-9.8,8.6-12.2L232.2,161.6L232.2,161.6z M232.2,184.4c0,2.9,0.4,5.7,1.2,7.8h12.2c-1.2-3.7-1.6-8.6-1.6-12.7v-21.6c0-16.3-9.8-19.6-17.5-19.6c-5.7,0-11,1.6-16.3,7.3 l3.7,6.5c2.9-3.3,6.5-5.3,11.4-5.3c3.7,0,7.3,2.9,7.8,7.8l-10.2,3.7c-9.8,3.7-15.9,9-15.9,19.2c0,9.8,5.7,15.9,12.2,15.9 c4.1,0,7.8-3.3,11-6.1L232.2,184.4L232.2,184.4z"/>
		<path id="u" class="white" d="M282,185.7c-4.1,4.9-8.2,7.8-13.5,7.8c-9,0-14.3-6.9-14.3-20v-33.9h11.4v31.8c0,7.3,2.4,12.2,8.2,12.2 c4.1,0,8.6-4.1,8.6-13.9v-30.6h11.4v52.6h-11.4v-6.1L282,185.7L282,185.7z"/>
		<polygon id="l" class="white" points="304.8,192.2 304.8,114.7 316.3,114.7 316.3,192.2"/>
		<path id="t" class="white" d="M341.1,139.6h11v7.3h-11v25.7c0,8.6,2,12.2,5.7,12.2c2.4,0,4.1-0.8,5.3-1.6l2,6.9c-3.3,2-7.3,3.3-11,3.3 c-9.4,0-13.5-6.1-13.5-16.7v-29.8h-6.1v-7.3h6.1v-12.7l11.4-3.3L341.1,139.6L341.1,139.6z"/>
	</g>
	<g id="TM">
		<polygon id="T" class="white" points="345.7,204 345.7,199.4 344,199.4 344,198.4 348.5,198.4 348.5,199.4 346.8,199.4 346.8,204"/>
		<polygon id="M" class="white" points="349.2,204 349.2,198.4 351,198.4 352,202.3 353,198.4 354.8,198.4 354.8,204 353.7,204 353.7,199.5 352.5,204 351.5,204 350.3,199.5 350.3,204"/>
	</g>
</g>
</svg>
